<svg width="24" height="24" viewBox="0 0 24 24" fill="none" xmlns="http://www.w3.org/2000/svg">
<g clip-path="url(#clip0_29223_2996)">
<path d="M18.5759 13.453C17.9157 10.1305 21.0693 8.18184 21.0693 8.18184C21.0693 8.18184 19.8406 6.4042 17.7756 5.94688C15.7117 5.48857 14.6787 6.06119 13.6477 6.49067C12.6157 6.92119 12.1008 6.92119 12.1008 6.92119C10.6115 6.92119 9.52284 5.34437 6.68542 6.06224C4.73064 6.55555 2.67282 8.81214 2.30102 11.5054C1.92922 14.1997 2.73155 17.6376 4.27848 20.302C5.82541 22.9685 7.40123 23.9706 8.51969 23.9994C9.63819 24.0272 10.7546 23.1981 12.1008 22.9963C13.4479 22.7964 14.277 23.4845 15.5984 23.8563C16.9146 24.2271 17.376 23.8831 18.892 22.5936C20.4122 21.3041 21.7882 17.6057 21.7882 17.6057C21.7882 17.6057 19.236 16.7776 18.5759 13.453Z" fill="#0D0140"/>
<path d="M15.6533 3.79731C17.1157 2.30705 16.6204 0 16.6204 0C16.6204 0 14.5667 0.360484 13.1907 1.79206C11.8158 3.22469 12.0434 5.48743 12.0434 5.48743C12.0434 5.48743 14.1908 5.28661 15.6533 3.79731Z" fill="#0D0140"/>
</g>
<defs>
<clipPath id="clip0_29223_2996">
<rect width="24" height="24" fill="white"/>
</clipPath>
</defs>
</svg>
