<svg width="68" height="76" viewBox="0 0 68 76" fill="none" xmlns="http://www.w3.org/2000/svg">
<g filter="url(#filter0_dd_29223_3620)">
<path d="M23.222 39.5253C23.121 39.4607 23.0895 39.3316 23.1589 39.2318C23.2283 39.1379 23.3672 39.1086 23.4745 39.1731C23.5376 39.2142 23.607 39.2553 23.6828 39.2964C24.2004 39.5898 24.6864 39.7366 25.084 39.7366C25.4438 39.7366 25.7405 39.6074 25.9235 39.3551C25.9361 39.3375 25.9488 39.3257 25.9488 39.314C25.9993 39.2318 26.0434 39.1496 26.0687 39.0675C26.1192 38.8973 26.1129 38.7212 26.0371 38.5627C25.9614 38.3925 25.8036 38.2341 25.5637 38.0991C25.4059 38.011 25.204 37.9289 24.9641 37.8643C24.3519 37.7058 23.9037 37.4769 23.6575 37.1776C23.3924 36.8431 23.3735 36.444 23.6575 35.9568C23.8469 35.634 24.2319 35.4345 24.7243 35.3993C25.1472 35.3699 25.6584 35.4638 26.176 35.7103C26.2896 35.7631 26.3338 35.8923 26.277 35.992C26.2202 36.0977 26.0813 36.1388 25.974 36.0859C25.5322 35.8747 25.1093 35.7984 24.7621 35.8218C24.4276 35.8453 24.1688 35.9686 24.0615 36.1622C23.8721 36.485 23.8721 36.7374 24.0299 36.9311C24.2067 37.1541 24.5791 37.3302 25.0903 37.4652C25.3681 37.5356 25.6016 37.6354 25.7973 37.7469C26.1192 37.9289 26.3338 38.1578 26.4474 38.4043C26.5673 38.6566 26.58 38.9325 26.4979 39.1907C26.46 39.3081 26.4032 39.4314 26.3275 39.5429C26.3085 39.5664 26.2959 39.5898 26.2896 39.6016C26.0182 39.9772 25.589 40.165 25.0714 40.165C24.5917 40.165 24.0299 40.0007 23.4366 39.6661C23.3798 39.6192 23.3041 39.5781 23.222 39.5253Z" fill="#EA501F"/>
<path d="M27.2548 35.5988C27.2548 35.4873 27.3558 35.3992 27.482 35.3992C27.6083 35.3992 27.7092 35.4873 27.7092 35.5988V39.9596C27.7092 40.0711 27.6083 40.1591 27.482 40.1591C27.3558 40.1591 27.2548 40.0711 27.2548 39.9596V35.5988Z" fill="#EA501F"/>
<path d="M27.7219 38.3162C27.6399 38.4043 27.501 38.4219 27.4 38.3456C27.3054 38.2693 27.2864 38.1401 27.3685 38.0462C27.7156 37.653 28.107 37.4124 28.492 37.3067C28.7697 37.2304 29.0411 37.2246 29.2747 37.2832C29.5208 37.3478 29.7354 37.4769 29.8869 37.6765C30.0321 37.8643 30.1142 38.1049 30.1142 38.3925V39.9537C30.1142 40.0711 30.0132 40.165 29.8869 40.165C29.7607 40.165 29.6597 40.0711 29.6597 39.9537V38.3925C29.6597 38.193 29.6092 38.0345 29.5208 37.9171C29.4325 37.8056 29.3125 37.7293 29.1611 37.6882C29.0033 37.6471 28.8202 37.653 28.6245 37.7058C28.3216 37.7939 28.006 37.9934 27.7219 38.3162Z" fill="#EA501F"/>
<path d="M32.343 37.2422C32.7785 37.2422 33.1699 37.4065 33.4539 37.6706C33.7379 37.9347 33.9147 38.2986 33.9147 38.7036C33.9147 39.1086 33.7379 39.4724 33.4539 39.7366C33.1699 40.0007 32.7785 40.165 32.343 40.165C31.9075 40.165 31.5161 40.0007 31.2321 39.7366C30.9481 39.4724 30.7713 39.1086 30.7713 38.7036C30.7713 38.2986 30.9481 37.9347 31.2321 37.6706C31.5161 37.4065 31.9138 37.2422 32.343 37.2422ZM33.1383 37.9641C32.9363 37.7763 32.6523 37.6589 32.343 37.6589C32.0337 37.6589 31.756 37.7763 31.5477 37.9641C31.3457 38.1519 31.2195 38.416 31.2195 38.7036C31.2195 38.9912 31.3457 39.2553 31.5477 39.4431C31.7497 39.6309 32.0337 39.7483 32.343 39.7483C32.6523 39.7483 32.93 39.6309 33.1383 39.4431C33.3403 39.2553 33.4665 38.9912 33.4665 38.7036C33.4665 38.416 33.3403 38.1519 33.1383 37.9641Z" fill="#EA501F"/>
<path d="M34.5579 37.4535C34.5579 37.3361 34.6589 37.2422 34.7851 37.2422C34.9113 37.2422 35.0123 37.3361 35.0123 37.4535V37.7176C35.0313 37.7 35.0439 37.6824 35.0628 37.6706C35.3469 37.4065 35.7382 37.2422 36.1737 37.2422C36.6092 37.2422 37.0006 37.4065 37.2846 37.6706C37.5687 37.9347 37.7454 38.2986 37.7454 38.7036C37.7454 39.1086 37.5687 39.4724 37.2846 39.7366C37.0006 40.0007 36.6092 40.165 36.1737 40.165C35.7382 40.165 35.3469 40.0007 35.0628 39.7366C35.0439 39.719 35.0313 39.7013 35.0123 39.6896V41.6088C35.0123 41.7262 34.9113 41.8201 34.7851 41.8201C34.6589 41.8201 34.5579 41.7262 34.5579 41.6088V37.4535ZM36.9627 37.9641C36.7607 37.7763 36.4767 37.6589 36.1674 37.6589C35.8581 37.6589 35.5804 37.7763 35.3721 37.9641C35.1701 38.1519 35.0439 38.416 35.0439 38.7036C35.0439 38.9912 35.1701 39.2553 35.3721 39.4431C35.5741 39.6309 35.8581 39.7483 36.1674 39.7483C36.4767 39.7483 36.7544 39.6309 36.9627 39.4431C37.1647 39.2553 37.2909 38.9912 37.2909 38.7036C37.2909 38.416 37.1647 38.1519 36.9627 37.9641Z" fill="#EA501F"/>
<path d="M39.8789 37.2422C40.264 37.2422 40.6174 37.383 40.8762 37.6295C41.0908 37.8291 41.1792 38.0286 41.2549 38.2399C41.4506 38.8327 41.0782 38.8092 40.9646 38.8092H38.8753C38.8943 38.9501 38.9322 39.0792 38.9763 39.1966C39.0584 39.3785 39.1783 39.5135 39.3298 39.6074C39.4876 39.7013 39.6896 39.7483 39.9231 39.7483C40.1756 39.7483 40.4723 39.6837 40.8005 39.5546C40.9141 39.5077 41.0466 39.5605 41.0971 39.6661C41.1476 39.7718 41.0908 39.895 40.9772 39.942C40.5985 40.0887 40.245 40.1591 39.9294 40.165C39.6075 40.1709 39.3235 40.1004 39.09 39.9596C38.8564 39.8187 38.6544 39.625 38.5597 39.3551C38.3451 38.7623 38.3388 38.1754 38.8817 37.6295C39.1341 37.3772 39.4939 37.2422 39.8789 37.2422ZM40.5606 37.9289C40.3776 37.7645 40.1377 37.6647 39.8789 37.6647C39.6202 37.6647 39.3803 37.7645 39.1973 37.9289C39.0647 38.0521 38.9574 38.2047 38.9006 38.3808H40.8636C40.7942 38.2047 40.6932 38.0521 40.5606 37.9289Z" fill="#EA501F"/>
<path d="M43.3258 37.2422C43.7108 37.2422 44.0643 37.383 44.3231 37.6295C44.5377 37.8291 44.6261 38.0286 44.7018 38.2399C44.8975 38.8327 44.5251 38.8092 44.4114 38.8092H42.3222C42.3411 38.9501 42.379 39.0792 42.4232 39.1966C42.5052 39.3785 42.6252 39.5135 42.7767 39.6074C42.9345 39.7013 43.1364 39.7483 43.37 39.7483C43.6225 39.7483 43.9191 39.6837 44.2473 39.5546C44.3609 39.5077 44.4935 39.5605 44.544 39.6661C44.5945 39.7718 44.5377 39.895 44.4241 39.942C44.0454 40.0887 43.6919 40.1591 43.3763 40.165C43.0544 40.1709 42.7703 40.1004 42.5368 39.9596C42.3033 39.8187 42.1013 39.625 42.0066 39.3551C41.792 38.7623 41.7857 38.1754 42.3285 37.6295C42.581 37.3772 42.9408 37.2422 43.3258 37.2422ZM44.0075 37.9289C43.8244 37.7645 43.5846 37.6647 43.3258 37.6647C43.067 37.6647 42.8272 37.7645 42.6441 37.9289C42.5116 38.0521 42.4043 38.2047 42.3474 38.3808H44.3105C44.241 38.2047 44.14 38.0521 44.0075 37.9289Z" fill="#EA501F"/>
<path d="M24.8187 18.1616H29.5716C29.7168 16.6649 30.1649 15.3209 30.8088 14.282C31.6609 12.9087 32.8728 12.0635 34.2424 12.0635C35.6121 12.0635 36.8177 12.9145 37.6761 14.282C38.32 15.315 38.7681 16.6649 38.9133 18.1616H43.6598C44.2216 18.1616 44.7266 18.59 44.6824 19.1124L43.7293 31.4787C43.6093 33.0281 42.5616 33.9144 41.0404 33.9144H27.4445C25.7529 33.9144 24.8566 32.8168 24.7556 31.4787L23.7962 19.1182C23.7583 18.5959 24.257 18.1616 24.8187 18.1616ZM30.7583 18.1616H37.714C37.5751 16.8645 37.1901 15.7141 36.641 14.8337C36.0098 13.8066 35.1514 13.1669 34.2424 13.1669C33.3272 13.1669 32.4751 13.8066 31.8313 14.8396C31.2822 15.7141 30.9034 16.8703 30.7583 18.1616Z" fill="#EA501F"/>
<path d="M30.79 29.577C30.5691 29.4362 30.5123 29.1603 30.6638 28.9549C30.8153 28.7495 31.112 28.6966 31.3329 28.8375C31.4717 28.9255 31.6169 29.0136 31.7747 29.1016C32.8856 29.7296 33.9081 30.0407 34.7602 30.0407C35.5303 30.0407 36.1552 29.7707 36.5528 29.2249C36.5781 29.1838 36.6033 29.1603 36.6096 29.1427C36.7233 28.9725 36.8053 28.7905 36.8621 28.6145C36.9757 28.2506 36.9568 27.875 36.799 27.5345C36.6286 27.1765 36.3004 26.8302 35.7891 26.5427C35.4482 26.349 35.0253 26.1788 34.5141 26.0496C33.2138 25.7092 32.2544 25.228 31.7368 24.5824C31.1688 23.8722 31.1246 23.0153 31.7305 21.9765C32.1345 21.2898 32.9613 20.8613 34.0091 20.785C34.9117 20.7205 35.9974 20.92 37.102 21.4424C37.3418 21.5539 37.4365 21.8239 37.3103 22.0469C37.184 22.2699 36.9 22.3579 36.6601 22.2406C35.7197 21.7945 34.8234 21.6243 34.0786 21.6771C33.3653 21.7299 32.8225 21.9882 32.5826 22.399C32.1787 23.0857 32.185 23.6257 32.5132 24.0365C32.8919 24.5119 33.6809 24.8817 34.7792 25.1693C35.3725 25.3277 35.8775 25.5273 36.294 25.7621C36.982 26.1494 37.4428 26.6366 37.689 27.1648C37.9415 27.7106 37.973 28.2858 37.8026 28.8492C37.7268 29.1016 37.6069 29.354 37.4428 29.6005C37.4049 29.6533 37.3797 29.6944 37.3608 29.7237C36.7737 30.5278 35.8711 30.9269 34.7729 30.9328C33.744 30.9328 32.5448 30.5806 31.2824 29.8646C31.1246 29.7824 30.9605 29.6885 30.79 29.577Z" fill="white"/>
</g>
<defs>
<filter id="filter0_dd_29223_3620" x="0" y="0" width="67.8797" height="76" filterUnits="userSpaceOnUse" color-interpolation-filters="sRGB">
<feFlood flood-opacity="0" result="BackgroundImageFix"/>
<feColorMatrix in="SourceAlpha" type="matrix" values="0 0 0 0 0 0 0 0 0 0 0 0 0 0 0 0 0 0 127 0" result="hardAlpha"/>
<feOffset dy="11"/>
<feGaussianBlur stdDeviation="11.5"/>
<feComposite in2="hardAlpha" operator="out"/>
<feColorMatrix type="matrix" values="0 0 0 0 0.917647 0 0 0 0 0.313726 0 0 0 0 0.121569 0 0 0 0.12 0"/>
<feBlend mode="normal" in2="BackgroundImageFix" result="effect1_dropShadow_29223_3620"/>
<feColorMatrix in="SourceAlpha" type="matrix" values="0 0 0 0 0 0 0 0 0 0 0 0 0 0 0 0 0 0 127 0" result="hardAlpha"/>
<feOffset dy="4"/>
<feGaussianBlur stdDeviation="2"/>
<feComposite in2="hardAlpha" operator="out"/>
<feColorMatrix type="matrix" values="0 0 0 0 0.917647 0 0 0 0 0.313726 0 0 0 0 0.121569 0 0 0 0.12 0"/>
<feBlend mode="normal" in2="effect1_dropShadow_29223_3620" result="effect2_dropShadow_29223_3620"/>
<feBlend mode="normal" in="SourceGraphic" in2="effect2_dropShadow_29223_3620" result="shape"/>
</filter>
</defs>
</svg>
